MemphisModern.ufo
<glyph name="parenright" format="2">
  <advance width="278"/>
  <unicode hex="0029"/>
  <outline>
    <contour>
      <point x="85" y="781" type="curve"/>
      <point x="44" y="750" type="line"/>
      <point x="131" y="638"/>
      <point x="189" y="503"/>
      <point x="189" y="340" type="curve" smooth="yes"/>
      <point x="189" y="192"/>
      <point x="145" y="64"/>
      <point x="44" y="-71" type="curve"/>
      <point x="82" y="-103" type="line"/>
      <point x="180" y="12"/>
      <point x="244" y="177"/>
      <point x="244" y="327" type="curve" smooth="yes"/>
      <point x="244" y="503"/>
      <point x="194" y="642"/>
    </contour>
  </outline>
</glyph>
<glyph name="asterisk" format="2">
  <advance width="353"/>
  <unicode hex="002A"/>
  <outline>
    <contour>
      <point x="74" y="514" type="line"/>
      <point x="140" y="598" type="line"/>
      <point x="37" y="634" type="line"/>
      <point x="53" y="675" type="line"/>
      <point x="155" y="642" type="line"/>
      <point x="154" y="749" type="line"/>
      <point x="202" y="749" type="line"/>
      <point x="203" y="640" type="line"/>
      <point x="301" y="675" type="line"/>
      <point x="316" y="631" type="line"/>
      <point x="211" y="596" type="line"/>
      <point x="274" y="504" type="line"/>
      <point x="236" y="478" type="line"/>
      <point x="175" y="570" type="line"/>
      <point x="110" y="485" type="line"/>
      <point x="74" y="514" type="line"/>
    </contour>
  </outline>
</glyph>
<glyph name="comma" format="2">
  <advance width="161"/>
  <unicode hex="002C"/>
  <outline>
    <contour>
      <point x="-1" y="-108" type="line"/>
      <point x="65" y="104" type="line"/>
      <point x="121" y="104" type="line"/>
      <point x="55" y="-108" type="line"/>
      <point x="-1" y="-108" type="line"/>
    </contour>
  </outline>
</glyph>
<glyph name="slash" format="2">
  <advance width="288"/>
  <unicode hex="002F"/>
  <outline>
    <contour>
      <point x="-2" y="-16" type="line"/>
      <point x="46" y="-16" type="line"/>
      <point x="289" y="763" type="line"/>
      <point x="241" y="763" type="line"/>
    </contour>
  </outline>
</glyph>
<glyph name="greater" format="2">
  <advance width="600"/>
  <unicode hex="003E"/>
  <outline>
    <contour>
      <point x="46" y="71" type="line"/>
      <point x="46" y="16" type="line"/>
      <point x="554" y="250" type="line"/>
      <point x="554" y="304" type="line"/>
      <point x="46" y="538" type="line"/>
      <point x="46" y="483" type="line"/>
      <point x="492" y="277" type="line"/>
    </contour>
  </outline>
</glyph>
<glyph name="at" format="2">
  <advance width="705"/>
  <unicode hex="0040"/>
  <outline>
    <contour>
      <point x="531" y="155" type="qcurve" smooth="yes"/>
      <point x="595" y="155"/>
      <point x="661" y="270"/>
      <point x="661" y="354" type="qcurve" smooth="yes"/>
      <point x="661" y="375" type="line" smooth="yes"/>
      <point x="661" y="429"/>
      <point x="621" y="528"/>
      <point x="548" y="606"/>
      <point x="433" y="652"/>
      <point x="363" y="652" type="qcurve" smooth="yes"/>
      <point x="359" y="652" type="line" smooth="yes"/>
      <point x="269" y="652"/>
      <point x="127" y="575"/>
      <point x="45" y="431"/>
      <point x="45" y="336" type="qcurve" smooth="yes"/>
      <point x="45" y="311" type="line" smooth="yes"/>
      <point x="45" y="235"/>
      <point x="94" y="115"/>
      <point x="180" y="40"/>
      <point x="292" y="1"/>
      <point x="357" y="1" type="qcurve" smooth="yes"/>
      <point x="361" y="1" type="line" smooth="yes"/>
      <point x="454" y="1"/>
      <point x="497" y="20" type="qcurve"/>
      <point x="503" y="63" type="line"/>
      <point x="453" y="42"/>
      <point x="361" y="42" type="qcurve" smooth="yes"/>
      <point x="357" y="42" type="line" smooth="yes"/>
      <point x="302" y="42"/>
      <point x="208" y="76"/>
      <point x="134" y="142"/>
      <point x="93" y="247"/>
      <point x="93" y="313" type="qcurve" smooth="yes"/>
      <point x="93" y="333" type="line" smooth="yes"/>
      <point x="93" y="397"/>
      <point x="134" y="502"/>
      <point x="206" y="573"/>
      <point x="303" y="610"/>
      <point x="361" y="610" type="qcurve" smooth="yes"/>
      <point x="365" y="610" type="line" smooth="yes"/>
      <point x="413" y="610"/>
      <point x="493" y="577"/>
      <point x="552" y="534"/>
      <point x="594" y="475"/>
      <point x="614" y="405"/>
      <point x="614" y="369" type="qcurve" smooth="yes"/>
      <point x="614" y="353" type="line" smooth="yes"/>
      <point x="614" y="283"/>
      <point x="576" y="204"/>
      <point x="540" y="204" type="qcurve" smooth="yes"/>
      <point x="523" y="204"/>
      <point x="475" y="204"/>
      <point x="477" y="232" type="qcurve"/>
      <point x="470" y="243"/>
      <point x="481" y="255" type="qcurve"/>
      <point x="511" y="424" type="line"/>
      <point x="542" y="424" type="line"/>
      <point x="548" y="465" type="line"/>
      <point x="477" y="465" type="line"/>
      <point x="467" y="411" type="line"/>
      <point x="443" y="449"/>
      <point x="400" y="472"/>
      <point x="354" y="472" type="curve" smooth="yes"/>
      <point x="263" y="472"/>
      <point x="182" y="401"/>
      <point x="182" y="308" type="curve" smooth="yes"/>
      <point x="182" y="225"/>
      <point x="234" y="158"/>
      <point x="323" y="158" type="curve" smooth="yes"/>
      <point x="371" y="158"/>
      <point x="412" y="177"/>
      <point x="440" y="209" type="curve"/>
      <point x="449" y="188"/>
      <point x="467" y="172" type="qcurve" smooth="yes"/>
      <point x="487" y="155"/>
    </contour>
    <contour>
      <point x="444" y="331" type="curve" smooth="yes"/>
      <point x="444" y="260"/>
      <point x="399" y="200"/>
      <point x="330" y="200" type="curve" smooth="yes"/>
      <point x="277" y="200"/>
      <point x="237" y="247"/>
      <point x="237" y="300" type="curve" smooth="yes"/>
      <point x="237" y="370"/>
      <point x="281" y="429"/>
      <point x="354" y="429" type="curve" smooth="yes"/>
      <point x="408" y="429"/>
      <point x="444" y="389"/>
    </contour>
    <contour>
      <point x="481" y="255" type="line"/>
      <point x="481" y="259" type="line"/>
    </contour>
    <contour>
      <point x="490" y="306" type="curve"/>
      <point x="468" y="269" type="line"/>
      <point x="463" y="211" type="line"/>
      <point x="511" y="194" type="line"/>
      <point x="543" y="204" type="line"/>
      <point x="479" y="202"/>
      <point x="473" y="230"/>
    </contour>
  </outline>
</glyph>
<glyph name="K" format="2">
  <advance width="701"/>
  <unicode hex="004B"/>
  <outline>
    <contour>
      <point x="52" y="0" type="line"/>
      <point x="278" y="0" type="line"/>
      <point x="278" y="50" type="line"/>
      <point x="197" y="50" type="line"/>
      <point x="197" y="251" type="line"/>
      <point x="310" y="373" type="line"/>
      <point x="530" y="50" type="line"/>
      <point x="454" y="50" type="line"/>
      <point x="454" y="0" type="line"/>
      <point x="689" y="0" type="line"/>
      <point x="689" y="50" type="line"/>
      <point x="602" y="50" type="line"/>
      <point x="352" y="418" type="line"/>
      <point x="553" y="635" type="line"/>
      <point x="613" y="700" type="line"/>
      <point x="682" y="700" type="line"/>
      <point x="682" y="750" type="line"/>
      <point x="454" y="750" type="line"/>
      <point x="454" y="700" type="line"/>
      <point x="544" y="700" type="line"/>
      <point x="197" y="325" type="line"/>
      <point x="197" y="700" type="line"/>
      <point x="278" y="700" type="line"/>
      <point x="278" y="750" type="line"/>
      <point x="52" y="750" type="line"/>
      <point x="52" y="700" type="line"/>
      <point x="137" y="700" type="line"/>
      <point x="137" y="50" type="line"/>
      <point x="52" y="50" type="line"/>
    </contour>
  </outline>
</glyph>
<glyph name="M" format="2">
  <advance width="946"/>
  <unicode hex="004D"/>
  <outline>
    <contour>
      <point x="739" y="750" type="line"/>
      <point x="474" y="119" type="line"/>
      <point x="472" y="119" type="line"/>
      <point x="207" y="750" type="line"/>
      <point x="39" y="750" type="line"/>
      <point x="39" y="701" type="line"/>
      <point x="127" y="701" type="line"/>
      <point x="127" y="50" type="line"/>
      <point x="39" y="50" type="line"/>
      <point x="39" y="0" type="line"/>
      <point x="273" y="0" type="line"/>
      <point x="273" y="50" type="line"/>
      <point x="187" y="50" type="line"/>
      <point x="187" y="652" type="line"/>
      <point x="189" y="652" type="line"/>
      <point x="455" y="31" type="line"/>
      <point x="491" y="31" type="line"/>
      <point x="756" y="652" type="line"/>
      <point x="759" y="652" type="line"/>
      <point x="759" y="50" type="line"/>
      <point x="673" y="50" type="line"/>
      <point x="673" y="0" type="line"/>
      <point x="907" y="0" type="line"/>
      <point x="907" y="50" type="line"/>
      <point x="819" y="50" type="line"/>
      <point x="819" y="701" type="line"/>
      <point x="907" y="701" type="line"/>
      <point x="907" y="750" type="line"/>
    </contour>
  </outline>
</glyph>
<glyph name="Q" format="2">
  <advance width="864"/>
  <unicode hex="0051"/>
  <guideline x="2910" y="-155" angle="0" identifier="GhiJ9o8xJN"/>
  <guideline x="2910" y="-155" angle="0" identifier="ovAgEZH3ZI"/>
  <guideline x="2910" y="-155" angle="0" identifier="2xZdE01y2I"/>
  <outline>
    <contour>
      <point x="113.48245614035088" y="344" type="qcurve"/>
      <point x="113.48245614035088" y="343" type="line"/>
      <point x="101.48245614035088" y="478"/>
      <point x="267.4824561403509" y="683"/>
      <point x="401.4824561403509" y="694" type="qcurve" smooth="yes"/>
      <point x="536.4824561403509" y="706"/>
      <point x="736.4824561403509" y="534"/>
      <point x="748.4824561403509" y="398" type="qcurve" smooth="yes"/>
      <point x="759.4824561403509" y="263"/>
      <point x="676.4824561403509" y="162" type="qcurve" smooth="yes"/>
      <point x="656.4824561403509" y="137"/>
      <point x="632.4824561403509" y="117" type="qcurve"/>
      <point x="628.4824561403509" y="119"/>
      <point x="625.4824561403509" y="121"/>
      <point x="621.4824561403509" y="123" type="curve" smooth="yes"/>
      <point x="457.4824561403509" y="210"/>
      <point x="318.4824561403509" y="211"/>
      <point x="257.4824561403509" y="135" type="curve" smooth="yes"/>
      <point x="250.48245614035088" y="126"/>
      <point x="249.48245614035088" y="126"/>
      <point x="244.48245614035088" y="106" type="curve"/>
      <point x="234.48245614035088" y="113"/>
      <point x="225.48245614035088" y="122" type="qcurve"/>
      <point x="125.48245614035088" y="207"/>
    </contour>
    <contour>
      <point x="442.4824561403509" y="47" type="qcurve"/>
      <point x="328.4824561403509" y="41"/>
      <point x="279.4824561403509" y="79"/>
      <point x="300.4824561403509" y="103" type="curve" smooth="yes"/>
      <point x="355.4824561403509" y="168"/>
      <point x="508.4824561403509" y="133"/>
      <point x="576.4824561403509" y="81" type="curve"/>
      <point x="524.4824561403509" y="57"/>
      <point x="458.4824561403509" y="48" type="qcurve"/>
      <point x="450.4824561403509" y="47"/>
    </contour>
    <contour>
      <point x="873.4824561403509" y="50" type="line"/>
      <point x="872.4824561403509" y="50"/>
      <point x="870.4824561403509" y="49"/>
      <point x="869.4824561403509" y="49" type="curve" smooth="yes"/>
      <point x="846.4824561403509" y="48"/>
      <point x="824.4824561403509" y="49"/>
      <point x="799.4824561403509" y="50" type="curve" smooth="yes"/>
      <point x="760.4824561403509" y="51"/>
      <point x="706.4824561403509" y="71"/>
      <point x="684.4824561403509" y="91" type="curve"/>
      <point x="704.4824561403509" y="109"/>
      <point x="722.4824561403509" y="130" type="qcurve" smooth="yes"/>
      <point x="823.4824561403509" y="250"/>
      <point x="809.4824561403509" y="404" type="qcurve" smooth="yes"/>
      <point x="796.4824561403509" y="558"/>
      <point x="554.4824561403509" y="760"/>
      <point x="240.48245614035088" y="732"/>
      <point x="38.48245614035088" y="492"/>
      <point x="51.48245614035088" y="339" type="qcurve"/>
      <point x="51.48245614035088" y="338" type="line"/>
      <point x="65.48245614035088" y="184"/>
      <point x="305.4824561403509" y="-18"/>
      <point x="463.4824561403509" y="-4" type="qcurve" smooth="yes"/>
      <point x="555.4824561403509" y="4"/>
      <point x="628.4824561403509" y="49" type="qcurve"/>
      <point x="692.4824561403509" y="15"/>
      <point x="732.4824561403509" y="6"/>
      <point x="787.4824561403509" y="0" type="curve" smooth="yes"/>
      <point x="817.4824561403509" y="-3"/>
      <point x="844.4824561403509" y="-5"/>
      <point x="870.4824561403509" y="0" type="curve" smooth="yes"/>
      <point x="871.4824561403509" y="0"/>
      <point x="872.4824561403509" y="0"/>
      <point x="873.4824561403509" y="1" type="curve"/>
    </contour>
    <contour>
      <point x="873.4824561403509" y="50" type="line"/>
      <point x="873.4824561403509" y="1" type="line"/>
    </contour>
  </outline>
</glyph>
<glyph name="T" format="2">
  <advance width="614"/>
  <unicode hex="0054"/>
  <outline>
    <contour>
      <point x="519" y="700" type="line"/>
      <point x="519" y="553" type="line"/>
      <point x="569" y="553" type="line"/>
      <point x="569" y="750" type="line"/>
      <point x="45" y="750" type="line"/>
      <point x="45" y="553" type="line"/>
      <point x="95" y="553" type="line"/>
      <point x="95" y="700" type="line"/>
      <point x="277" y="700" type="line"/>
      <point x="277" y="50" type="line"/>
      <point x="200" y="50" type="line"/>
      <point x="200" y="0" type="line"/>
      <point x="414" y="0" type="line"/>
      <point x="414" y="50" type="line"/>
      <point x="337" y="50" type="line"/>
      <point x="337" y="700" type="line"/>
    </contour>
  </outline>
</glyph>
<glyph name="U" format="2">
  <advance width="742"/>
  <unicode hex="0055"/>
  <outline>
    <contour>
      <point x="371" y="0" type="line"/>
      <point x="620" y="0"/>
      <point x="628" y="198"/>
      <point x="627" y="214" type="curve"/>
      <point x="627" y="699" type="line"/>
      <point x="706" y="699" type="line"/>
      <point x="706" y="750" type="line"/>
      <point x="484" y="750" type="line"/>
      <point x="484" y="700" type="line"/>
      <point x="567" y="700" type="line"/>
      <point x="567" y="212" type="line"/>
      <point x="567" y="108"/>
      <point x="470" y="47"/>
      <point x="371" y="47" type="curve"/>
    </contour>
    <contour>
      <point x="371" y="47" type="curve"/>
      <point x="229" y="47"/>
      <point x="353" y="47"/>
    </contour>
    <contour>
      <point x="371" y="0" type="curve"/>
      <point x="371" y="47" type="line"/>
      <point x="272" y="47"/>
      <point x="175" y="108"/>
      <point x="175" y="212" type="curve"/>
      <point x="175" y="700" type="line"/>
      <point x="258" y="700" type="line"/>
      <point x="258" y="750" type="line"/>
      <point x="36" y="750" type="line"/>
      <point x="36" y="699" type="line"/>
      <point x="115" y="699" type="line"/>
      <point x="115" y="214" type="line"/>
      <point x="114" y="198"/>
      <point x="122" y="0"/>
    </contour>
    <contour>
      <point x="371" y="47" type="curve"/>
      <point x="389" y="47"/>
      <point x="513" y="47"/>
    </contour>
  </outline>
</glyph>
<glyph name="p" format="2">
  <advance width="648"/>
  <unicode hex="0070"/>
  <outline>
    <contour>
      <point x="33" y="-165" type="line"/>
      <point x="33" y="-215" type="line"/>
      <point x="230" y="-215" type="line"/>
      <point x="230" y="-165" type="line"/>
      <point x="161" y="-165" type="line"/>
      <point x="161" y="95" type="line"/>
      <point x="170" y="80"/>
      <point x="182" y="67" type="qcurve" smooth="yes"/>
      <point x="243" y="0"/>
      <point x="350" y="0" type="qcurve" smooth="yes"/>
      <point x="458" y="0"/>
      <point x="599" y="134"/>
      <point x="598" y="235" type="qcurve" smooth="yes"/>
      <point x="598" y="336"/>
      <point x="457.01399" y="475"/>
      <point x="243" y="475"/>
      <point x="182" y="406" type="qcurve" smooth="yes"/>
      <point x="170" y="391"/>
      <point x="159" y="374" type="qcurve"/>
      <point x="159" y="477" type="line"/>
      <point x="36" y="477" type="line"/>
      <point x="36" y="425" type="line"/>
      <point x="102" y="425" type="line"/>
      <point x="102" y="-165" type="line"/>
    </contour>
    <contour>
      <point x="161" y="236" type="line" smooth="yes"/>
      <point x="161" y="321"/>
      <point x="264" y="420"/>
      <point x="350" y="420" type="qcurve" smooth="yes"/>
      <point x="434" y="420"/>
      <point x="538.01399" y="321"/>
      <point x="538.01399" y="149"/>
      <point x="433" y="54"/>
      <point x="348" y="54" type="qcurve" smooth="yes"/>
      <point x="264" y="54"/>
      <point x="161" y="149"/>
      <point x="161" y="235" type="qcurve" smooth="yes"/>
    </contour>
    <contour>
      <point x="158" y="373" type="line"/>
      <point x="159" y="373"/>
      <point x="159" y="374" type="qcurve"/>
    </contour>
  </outline>
</glyph>
<glyph name="y" format="2">
  <advance width="597"/>
  <unicode hex="0079"/>
  <outline>
    <contour>
      <point x="590" y="426" type="line"/>
      <point x="509" y="426" type="line"/>
      <point x="224" y="-167" type="line"/>
      <point x="316" y="-167" type="line"/>
      <point x="316" y="-215" type="line"/>
      <point x="94" y="-215" type="line"/>
      <point x="94" y="-167" type="line"/>
      <point x="164" y="-167" type="line"/>
      <point x="263" y="40" type="line"/>
      <point x="80" y="426" type="line"/>
      <point x="7" y="426" type="line"/>
      <point x="7" y="475" type="line"/>
      <point x="219" y="475" type="line"/>
      <point x="219" y="426" type="line"/>
      <point x="140" y="426" type="line"/>
      <point x="292" y="102" type="line"/>
      <point x="449" y="426" type="line"/>
      <point x="374" y="426" type="line"/>
      <point x="374" y="475" type="line"/>
      <point x="590" y="475" type="line"/>
      <point x="590" y="426" type="line"/>
    </contour>
  </outline>
</glyph>
<glyph name="exclamdown" format="2">
  <advance width="256"/>
  <unicode hex="00A1"/>
  <outline>
    <contour>
      <point x="91" y="-200" type="line"/>
      <point x="165" y="-200" type="line"/>
      <point x="155" y="385" type="line"/>
      <point x="102" y="385" type="line"/>
    </contour>
    <contour>
      <point x="72" y="499" type="curve" smooth="yes"/>
      <point x="72" y="469"/>
      <point x="97" y="443"/>
      <point x="128" y="443" type="curve" smooth="yes"/>
      <point x="158" y="443"/>
      <point x="184" y="469"/>
      <point x="184" y="499" type="curve" smooth="yes"/>
      <point x="184" y="530"/>
      <point x="158" y="555"/>
      <point x="128" y="555" type="curve" smooth="yes"/>
      <point x="97" y="555"/>
      <point x="72" y="530"/>
    </contour>
  </outline>
</glyph>
<glyph name="cent" format="2">
  <advance width="500"/>
  <unicode hex="00A2"/>
  <outline>
    <contour>
      <point x="176" y="69" type="line"/>
      <point x="114" y="99"/>
      <point x="75" y="162"/>
      <point x="75" y="236" type="curve" smooth="yes"/>
      <point x="75" y="349"/>
      <point x="149" y="429"/>
      <point x="263" y="429" type="curve" smooth="yes"/>
      <point x="273" y="429"/>
      <point x="283" y="428"/>
      <point x="295" y="426" type="curve"/>
    </contour>
    <contour>
      <point x="456" y="464" type="line"/>
      <point x="411" y="464" type="line"/>
      <point x="411" y="412" type="line"/>
      <point x="393" y="429"/>
      <point x="373" y="443"/>
      <point x="351" y="452" type="curve"/>
      <point x="397" y="589" type="line"/>
      <point x="349" y="589" type="line"/>
      <point x="309" y="469" type="line"/>
      <point x="290" y="472"/>
      <point x="274" y="474"/>
      <point x="257" y="474" type="curve" smooth="yes"/>
      <point x="125" y="474"/>
      <point x="25" y="366"/>
      <point x="25" y="237" type="curve" smooth="yes"/>
      <point x="25" y="134"/>
      <point x="82" y="60"/>
      <point x="161" y="25" type="curve"/>
      <point x="112" y="-121" type="line"/>
      <point x="160" y="-121" type="line"/>
      <point x="203" y="8" type="line"/>
      <point x="225" y="2"/>
      <point x="246" y="0"/>
      <point x="267" y="0" type="curve" smooth="yes"/>
      <point x="343" y="0"/>
      <point x="421" y="41"/>
      <point x="463" y="105" type="curve"/>
      <point x="428" y="133" type="line"/>
      <point x="390" y="84"/>
      <point x="330" y="45"/>
      <point x="266" y="45" type="curve" smooth="yes"/>
      <point x="249" y="45"/>
      <point x="233" y="47"/>
      <point x="217" y="51" type="curve"/>
      <point x="337" y="411" type="line"/>
      <point x="377" y="391"/>
      <point x="404" y="357"/>
      <point x="416" y="312" type="curve"/>
      <point x="456" y="312" type="line"/>
    </contour>
  </outline>
</glyph>
<glyph name="yen" format="2">
  <advance width="500"/>
  <unicode hex="00A5"/>
  <outline>
    <contour>
      <point x="383" y="0" type="line"/>
      <point x="383" y="49" type="line"/>
      <point x="290" y="49" type="line"/>
      <point x="290" y="246" type="line"/>
      <point x="518" y="246" type="line"/>
      <point x="518" y="295" type="line"/>
      <point x="290" y="295" type="line"/>
      <point x="290" y="314" type="line"/>
      <point x="338" y="408" type="line"/>
      <point x="518" y="408" type="line"/>
      <point x="518" y="457" type="line"/>
      <point x="361" y="457" type="line"/>
      <point x="475" y="701" type="line"/>
      <point x="554" y="701" type="line"/>
      <point x="554" y="750" type="line"/>
      <point x="318" y="750" type="line"/>
      <point x="318" y="701" type="line"/>
      <point x="412" y="701" type="line"/>
      <point x="263" y="380" type="line"/>
      <point x="120" y="701" type="line"/>
      <point x="218" y="701" type="line"/>
      <point x="218" y="750" type="line"/>
      <point x="-20" y="750" type="line"/>
      <point x="-20" y="701" type="line"/>
      <point x="61" y="701" type="line"/>
      <point x="170" y="457" type="line"/>
      <point x="18" y="457" type="line"/>
      <point x="18" y="408" type="line"/>
      <point x="192" y="408" type="line"/>
      <point x="235" y="314" type="line"/>
      <point x="235" y="295" type="line"/>
      <point x="18" y="295" type="line"/>
      <point x="18" y="246" type="line"/>
      <point x="235" y="246" type="line"/>
      <point x="235" y="49" type="line"/>
      <point x="143" y="49" type="line"/>
      <point x="143" y="0" type="line"/>
    </contour>
  </outline>
</glyph>
<glyph name="ordfeminine" format="2">
  <advance width="339"/>
  <unicode hex="00AA"/>
  <outline>
    <contour>
      <point x="50" y="305" type="line"/>
      <point x="288" y="305" type="line"/>
      <point x="288" y="342" type="line"/>
      <point x="50" y="342" type="line"/>
    </contour>
    <contour>
      <point x="134" y="442" type="curve" smooth="yes"/>
      <point x="99" y="442"/>
      <point x="74" y="460"/>
      <point x="74" y="485" type="curve" smooth="yes"/>
      <point x="74" y="511"/>
      <point x="101" y="530"/>
      <point x="141" y="530" type="curve" smooth="yes"/>
      <point x="166" y="530"/>
      <point x="192" y="525"/>
      <point x="210" y="520" type="curve"/>
      <point x="210" y="478" type="line"/>
      <point x="191" y="458"/>
      <point x="164" y="442"/>
    </contour>
    <contour>
      <point x="72" y="645" type="line"/>
      <point x="71" y="644"/>
      <point x="105" y="627"/>
      <point x="104" y="626" type="curve"/>
    </contour>
    <contour>
      <point x="124" y="410" type="curve" smooth="yes"/>
      <point x="158" y="410"/>
      <point x="190" y="427"/>
      <point x="211" y="447" type="curve"/>
      <point x="211" y="415" type="line"/>
      <point x="288" y="415" type="line"/>
      <point x="288" y="445" type="line"/>
      <point x="243" y="445" type="line"/>
      <point x="243" y="588" type="line" smooth="yes"/>
      <point x="243" y="616"/>
      <point x="234" y="638"/>
      <point x="212" y="652" type="curve" smooth="yes"/>
      <point x="196" y="662"/>
      <point x="176" y="667"/>
      <point x="149" y="667" type="curve" smooth="yes"/>
      <point x="113" y="667"/>
      <point x="87" y="660"/>
      <point x="72" y="645" type="curve"/>
      <point x="104" y="626" type="line"/>
      <point x="104" y="626" type="line"/>
      <point x="112" y="632"/>
      <point x="123" y="636"/>
      <point x="144" y="636" type="curve" smooth="yes"/>
      <point x="164" y="636"/>
      <point x="180" y="632"/>
      <point x="191" y="624" type="curve" smooth="yes"/>
      <point x="203" y="615"/>
      <point x="210" y="601"/>
      <point x="210" y="582" type="curve" smooth="yes"/>
      <point x="210" y="546" type="line"/>
      <point x="197" y="551"/>
      <point x="164" y="558"/>
      <point x="137" y="558" type="curve" smooth="yes"/>
      <point x="81" y="558"/>
      <point x="41" y="528"/>
      <point x="41" y="482" type="curve" smooth="yes"/>
      <point x="41" y="439"/>
      <point x="75" y="410"/>
    </contour>
  </outline>
</glyph>
<glyph name="ae" format="2">
  <advance width="833"/>
  <unicode hex="00E6"/>
  <guideline x="457" y="242" angle="0" identifier="BadxzMYoqG"/>
  <guideline x="266" y="423" angle="0" identifier="bhKhMFMX1H"/>
  <guideline x="322" y="53" angle="0" identifier="SKbOLhSeNL"/>
  <guideline x="457" y="242" angle="0" identifier="utF9QhvfgN"/>
  <guideline x="266" y="423" angle="0" identifier="Ap6zTnUNsp"/>
  <guideline x="322" y="53" angle="0" identifier="zm6n2k6vas"/>
  <outline>
    <contour>
      <point x="570" y="1" type="qcurve"/>
      <point x="505" y="1"/>
      <point x="419" y="63"/>
      <point x="404" y="102" type="qcurve"/>
      <point x="399" y="102" type="line"/>
      <point x="381" y="64"/>
      <point x="293" y="1"/>
      <point x="234" y="1" type="qcurve"/>
      <point x="166" y="1"/>
      <point x="77" y="72"/>
      <point x="77" y="137" type="qcurve"/>
      <point x="77" y="201"/>
      <point x="166" y="272"/>
      <point x="244" y="272" type="qcurve"/>
      <point x="371" y="272" type="line"/>
      <point x="371" y="328" type="line"/>
      <point x="371" y="373"/>
      <point x="323" y="426"/>
      <point x="253" y="428" type="qcurve"/>
      <point x="159" y="430"/>
      <point x="152" y="360" type="qcurve"/>
      <point x="97" y="360" type="line"/>
      <point x="102" y="417"/>
      <point x="194" y="477"/>
      <point x="268" y="477" type="qcurve"/>
      <point x="316" y="477"/>
      <point x="390" y="426"/>
      <point x="409" y="394" type="qcurve"/>
      <point x="413" y="394" type="line"/>
      <point x="433" y="424"/>
      <point x="520" y="477"/>
      <point x="564" y="477" type="qcurve"/>
      <point x="605" y="477"/>
      <point x="673.1419183426549" y="448.8069215068332"/>
      <point x="721.5534774244754" y="396.7644954938769"/>
      <point x="748" y="321"/>
      <point x="748" y="277" type="qcurve"/>
      <point x="748" y="220" type="line"/>
      <point x="428" y="220" type="line"/>
      <point x="428" y="183" type="line"/>
      <point x="428" y="131"/>
      <point x="503" y="53"/>
      <point x="579" y="54" type="qcurve"/>
      <point x="618" y="54"/>
      <point x="676" y="86"/>
      <point x="682" y="118" type="qcurve"/>
      <point x="741" y="118" type="line"/>
      <point x="738" y="99"/>
      <point x="715.9054621982623" y="59.900730216214114"/>
      <point x="675.5624962967456" y="23.59206090484926"/>
      <point x="610" y="1"/>
    </contour>
    <contour>
      <point x="564" y="421" type="qcurve"/>
      <point x="513" y="421"/>
      <point x="428" y="341"/>
      <point x="428" y="286" type="qcurve"/>
      <point x="428" y="269" type="line"/>
      <point x="688" y="269" type="line"/>
      <point x="688" y="280" type="line"/>
      <point x="688" y="310"/>
      <point x="675" y="364"/>
      <point x="646" y="398"/>
      <point x="591" y="423"/>
    </contour>
    <contour>
      <point x="236" y="46" type="qcurve"/>
      <point x="286" y="46"/>
      <point x="371" y="121"/>
      <point x="371" y="167" type="qcurve"/>
      <point x="371" y="220" type="line"/>
      <point x="231" y="220" type="line"/>
      <point x="183" y="220"/>
      <point x="124" y="176"/>
      <point x="124" y="142" type="qcurve"/>
      <point x="124" y="102"/>
      <point x="194" y="46"/>
    </contour>
  </outline>
</glyph>
<glyph name="OE" format="2">
  <advance width="943"/>
  <unicode hex="0152"/>
  <outline>
    <contour>
      <point x="428" y="0" type="curve" smooth="yes"/>
      <point x="554" y="0" type="line"/>
      <point x="554" y="750" type="line"/>
      <point x="426" y="750" type="line" smooth="yes"/>
      <point x="182" y="750"/>
      <point x="20" y="592"/>
      <point x="20" y="367" type="curve" smooth="yes"/>
      <point x="20" y="146"/>
      <point x="193" y="0"/>
    </contour>
    <contour>
      <point x="429" y="57" type="line" smooth="yes"/>
      <point x="228" y="57"/>
      <point x="86" y="178"/>
      <point x="86" y="365" type="curve" smooth="yes"/>
      <point x="86" y="557"/>
      <point x="204" y="693"/>
      <point x="420" y="693" type="curve" smooth="yes"/>
      <point x="496" y="693" type="line"/>
      <point x="496" y="57" type="line"/>
    </contour>
    <component base="E" xOffset="369"/>
  </outline>
</glyph>
<glyph name="breve" format="2">
  <advance width="277"/>
  <unicode hex="02D8"/>
  <outline>
    <contour>
      <point x="134" y="640" type="line" smooth="yes"/>
      <point x="97" y="641"/>
      <point x="47" y="674"/>
      <point x="41" y="706" type="qcurve"/>
      <point x="0" y="700" type="line"/>
      <point x="8" y="650"/>
      <point x="71" y="598"/>
      <point x="134" y="597" type="qcurve" smooth="yes"/>
      <point x="143" y="597" type="line" smooth="yes"/>
      <point x="205" y="598"/>
      <point x="269" y="650"/>
      <point x="277" y="700" type="qcurve"/>
      <point x="236" y="706" type="line"/>
      <point x="230" y="674"/>
      <point x="180" y="641"/>
      <point x="143" y="640" type="qcurve"/>
    </contour>
  </outline>
</glyph>
<glyph name="ogonek" format="2">
  <advance width="282"/>
  <unicode hex="02DB"/>
  <outline>
    <contour>
      <point x="168.00646" y="-227" type="curve" smooth="yes"/>
      <point x="203.00646" y="-218"/>
      <point x="245.00646" y="-183"/>
      <point x="256.00646" y="-169" type="curve"/>
      <point x="232.00646" y="-141" type="line"/>
      <point x="215.00646" y="-158"/>
      <point x="191.00646" y="-178"/>
      <point x="160.00646" y="-186" type="curve" smooth="yes"/>
      <point x="123.00646" y="-195"/>
      <point x="97.00646" y="-179"/>
      <point x="88.00646" y="-149" type="curve" smooth="yes"/>
      <point x="73.00646" y="-99"/>
      <point x="127.00646" y="-37"/>
      <point x="194.00646" y="1" type="curve"/>
      <point x="134.00646" y="1" type="line"/>
      <point x="73.00646" y="-38"/>
      <point x="28.00646" y="-107"/>
      <point x="46.00646" y="-170" type="curve" smooth="yes"/>
      <point x="61.00646" y="-222"/>
      <point x="103.00646" y="-246"/>
    </contour>
  </outline>
</glyph>
<glyph name="fi" format="2">
  <advance width="358"/>
  <unicode hex="FB01"/>
  <outline>
    <contour>
      <point x="157" y="642" type="curve" smooth="yes"/>
      <point x="185" y="642"/>
      <point x="209" y="667"/>
      <point x="209" y="697" type="curve" smooth="yes"/>
      <point x="209" y="726"/>
      <point x="185" y="751"/>
      <point x="157" y="751" type="curve" smooth="yes"/>
      <point x="127" y="751"/>
      <point x="104" y="726"/>
      <point x="104" y="697" type="curve" smooth="yes"/>
      <point x="104" y="667"/>
      <point x="127" y="642"/>
    </contour>
    <contour>
      <point x="189" y="0" type="line"/>
      <point x="415" y="0" type="line"/>
      <point x="415" y="51" type="line"/>
      <point x="332" y="51" type="line"/>
      <point x="332" y="475" type="line"/>
      <point x="129" y="475" type="line"/>
      <point x="129" y="425" type="line"/>
      <point x="272" y="425" type="line"/>
      <point x="272" y="51" type="line"/>
      <point x="189" y="51" type="line"/>
    </contour>
    <contour>
      <point x="-144" y="589" type="move"/>
    </contour>
    <contour>
      <point x="-144" y="589" type="move"/>
    </contour>
    <contour>
      <point x="132" y="0" type="line"/>
      <point x="-98" y="0" type="line"/>
      <point x="-98" y="50" type="line"/>
      <point x="-16" y="50" type="line"/>
      <point x="-16" y="425" type="line"/>
      <point x="-96" y="425" type="line"/>
      <point x="-96" y="475" type="line"/>
      <point x="-16" y="475" type="line"/>
      <point x="-16" y="635" type="line"/>
      <point x="-16" y="690"/>
      <point x="40" y="738"/>
      <point x="72" y="745" type="qcurve"/>
      <point x="85" y="748"/>
      <point x="110" y="750"/>
      <point x="120" y="750" type="qcurve"/>
      <point x="159" y="751" type="line"/>
      <point x="159" y="700" type="line"/>
      <point x="140" y="700" type="line"/>
      <point x="90" y="699"/>
      <point x="42" y="681"/>
      <point x="42" y="628" type="qcurve"/>
      <point x="42" y="475" type="line"/>
      <point x="132" y="475" type="line"/>
      <point x="132" y="425" type="line"/>
      <point x="42" y="425" type="line"/>
      <point x="42" y="50" type="line"/>
      <point x="132" y="50" type="line"/>
      <point x="132" y="0" type="line"/>
    </contour>
    <component base="f" xOffset="-180"/>
  </outline>
</glyph>
<glyph name="fl" format="2">
  <advance width="358"/>
  <unicode hex="FB02"/>
  <outline>
    <contour>
      <point x="312" y="0" type="line"/>
      <point x="312" y="50" type="line"/>
      <point x="222" y="50" type="line"/>
      <point x="222" y="425" type="line"/>
      <point x="444" y="425" type="line"/>
      <point x="444" y="50" type="line"/>
      <point x="367" y="50" type="line"/>
      <point x="367" y="0" type="line"/>
      <point x="580" y="0" type="line"/>
      <point x="580" y="50" type="line"/>
      <point x="503" y="50" type="line"/>
      <point x="503" y="750" type="line"/>
      <point x="300" y="750" type="line" smooth="yes"/>
      <point x="290" y="750"/>
      <point x="265" y="748"/>
      <point x="252" y="745" type="qcurve" smooth="yes"/>
      <point x="220" y="738"/>
      <point x="164" y="690"/>
      <point x="164" y="635" type="qcurve" smooth="yes"/>
      <point x="164" y="475" type="line"/>
      <point x="84" y="475" type="line"/>
      <point x="84" y="425" type="line"/>
      <point x="164" y="425" type="line"/>
      <point x="164" y="50" type="line"/>
      <point x="82" y="50" type="line"/>
      <point x="82" y="0" type="line"/>
    </contour>
    <contour>
      <point x="369" y="700" type="line"/>
      <point x="444" y="700" type="line"/>
      <point x="444" y="475" type="line"/>
      <point x="222" y="475" type="line"/>
      <point x="222" y="628" type="line" smooth="yes"/>
      <point x="222" y="681"/>
      <point x="306" y="700"/>
      <point x="356" y="700" type="qcurve" smooth="yes"/>
    </contour>
  </outline>
</glyph>
<glyph name="dotlessi" format="2">
  <advance width="297"/>
  <outline>
    <contour>
      <point x="48" y="477" type="line"/>
      <point x="48" y="425" type="line"/>
      <point x="125" y="425" type="line"/>
      <point x="125" y="50" type="line"/>
      <point x="48" y="50" type="line"/>
      <point x="48" y="0" type="line"/>
      <point x="262" y="0" type="line"/>
      <point x="262" y="50" type="line"/>
      <point x="185" y="50" type="line"/>
      <point x="185" y="477" type="line"/>
      <point x="160" y="477"/>
      <point x="123" y="477"/>
      <point x="123" y="477" type="curve"/>
    </contour>
    <contour>
      <point x="182" y="425" type="move"/>
      <point x="184" y="477" type="line"/>
    </contour>
    <component base="uni0131"/>
  </outline>
</glyph>
